REM DIRINDEX 1\2,1\3,1\4,1\6,1\5\7,1\5\8
REM DIRNAME cjc114,folder01,folder02,folder03,folder04,folder05,folder06,folder07
TITLE ""
FILE "DB4500_5th_4B_38.mp3" MP3
  TRACK 01 AUDIO
    TITLE "0:"
    INDEX 01 00:00:00
  TRACK 02 AUDIO
    TITLE "2:cjc114_2993"
    INDEX 01 00:00:03
  TRACK 03 AUDIO
    TITLE "0:"
    INDEX 01 00:01:19
  TRACK 04 AUDIO
    TITLE "3:cjc114_2994"
    INDEX 01 00:01:40
  TRACK 05 AUDIO
    TITLE "0:"
    INDEX 01 00:03:02
  TRACK 06 AUDIO
    TITLE "4:cjc114_2995"
    INDEX 01 00:03:27
  TRACK 07 AUDIO
    TITLE "0:"
    INDEX 01 00:08:13
  TRACK 08 AUDIO
    TITLE "2:cjc114_2996"
    INDEX 01 00:08:64
  TRACK 09 AUDIO
    TITLE "0:"
    INDEX 01 00:09:61
  TRACK 10 AUDIO
    TITLE "3:cjc114_2997"
    INDEX 01 00:10:12
  TRACK 11 AUDIO
    TITLE "0:"
    INDEX 01 00:11:31
  TRACK 12 AUDIO
    TITLE "4:cjc114_2998"
    INDEX 01 00:11:56
  TRACK 13 AUDIO
    TITLE "0:"
    INDEX 01 00:14:54
  TRACK 14 AUDIO
    TITLE "2:cjc114_2999"
    INDEX 01 00:15:28
  TRACK 15 AUDIO
    TITLE "0:"
    INDEX 01 00:16:46
  TRACK 16 AUDIO
    TITLE "3:cjc114_3000"
    INDEX 01 00:16:69
  TRACK 17 AUDIO
    TITLE "0:"
    INDEX 01 00:18:07
  TRACK 18 AUDIO
    TITLE "4:cjc114_3001"
    INDEX 01 00:18:29
  TRACK 19 AUDIO
    TITLE "0:"
    INDEX 01 00:22:29
  TRACK 20 AUDIO
    TITLE "2:cjc114_3002"
    INDEX 01 00:23:04
  TRACK 21 AUDIO
    TITLE "0:"
    INDEX 01 00:24:20
  TRACK 22 AUDIO
    TITLE "3:cjc114_3003"
    INDEX 01 00:24:45
  TRACK 23 AUDIO
    TITLE "0:"
    INDEX 01 00:25:62
  TRACK 24 AUDIO
    TITLE "4:cjc114_3004"
    INDEX 01 00:26:13
  TRACK 25 AUDIO
    TITLE "0:"
    INDEX 01 00:30:34
  TRACK 26 AUDIO
    TITLE "2:cjc114_3005"
    INDEX 01 00:31:04
  TRACK 27 AUDIO
    TITLE "0:"
    INDEX 01 00:32:15
  TRACK 28 AUDIO
    TITLE "3:cjc114_3006"
    INDEX 01 00:32:39
  TRACK 29 AUDIO
    TITLE "0:"
    INDEX 01 00:33:58
  TRACK 30 AUDIO
    TITLE "4:cjc114_3007"
    INDEX 01 00:34:10
  TRACK 31 AUDIO
    TITLE "0:"
    INDEX 01 00:37:18
  TRACK 32 AUDIO
    TITLE "2:cjc114_3008"
    INDEX 01 00:37:69
  TRACK 33 AUDIO
    TITLE "0:"
    INDEX 01 00:39:09
  TRACK 34 AUDIO
    TITLE "3:cjc114_3009"
    INDEX 01 00:39:35
  TRACK 35 AUDIO
    TITLE "0:"
    INDEX 01 00:40:54
  TRACK 36 AUDIO
    TITLE "4:cjc114_3010"
    INDEX 01 00:41:04
  TRACK 37 AUDIO
    TITLE "0:"
    INDEX 01 00:45:02
  TRACK 38 AUDIO
    TITLE "2:cjc114_3011"
    INDEX 01 00:45:51
  TRACK 39 AUDIO
    TITLE "0:"
    INDEX 01 00:46:68
  TRACK 40 AUDIO
    TITLE "3:cjc114_3012"
    INDEX 01 00:47:15
  TRACK 41 AUDIO
    TITLE "0:"
    INDEX 01 00:48:24
  TRACK 42 AUDIO
    TITLE "4:cjc114_3013"
    INDEX 01 00:48:49
  TRACK 43 AUDIO
    TITLE "0:"
    INDEX 01 00:51:03
  TRACK 44 AUDIO
    TITLE "2:cjc114_3014"
    INDEX 01 00:51:50
  TRACK 45 AUDIO
    TITLE "0:"
    INDEX 01 00:52:57
  TRACK 46 AUDIO
    TITLE "3:cjc114_3015"
    INDEX 01 00:53:04
  TRACK 47 AUDIO
    TITLE "0:"
    INDEX 01 00:54:19
  TRACK 48 AUDIO
    TITLE "4:cjc114_3016"
    INDEX 01 00:54:44
  TRACK 49 AUDIO
    TITLE "0:"
    INDEX 01 00:58:11
  TRACK 50 AUDIO
    TITLE "2:cjc114_3017"
    INDEX 01 00:58:62
  TRACK 51 AUDIO
    TITLE "0:"
    INDEX 01 00:59:63
  TRACK 52 AUDIO
    TITLE "3:cjc114_3018"
    INDEX 01 01:00:12
  TRACK 53 AUDIO
    TITLE "0:"
    INDEX 01 01:01:40
  TRACK 54 AUDIO
    TITLE "4:cjc114_3019"
    INDEX 01 01:01:68
  TRACK 55 AUDIO
    TITLE "0:"
    INDEX 01 01:05:56
  TRACK 56 AUDIO
    TITLE "2:cjc114_3020"
    INDEX 01 01:06:32
  TRACK 57 AUDIO
    TITLE "0:"
    INDEX 01 01:07:43
  TRACK 58 AUDIO
    TITLE "3:cjc114_3021"
    INDEX 01 01:07:68
  TRACK 59 AUDIO
    TITLE "0:"
    INDEX 01 01:09:26
  TRACK 60 AUDIO
    TITLE "4:cjc114_3022"
    INDEX 01 01:09:52
  TRACK 61 AUDIO
    TITLE "0:"
    INDEX 01 01:13:26
  TRACK 62 AUDIO
    TITLE "2:cjc114_3023"
    INDEX 01 01:14:02
  TRACK 63 AUDIO
    TITLE "0:"
    INDEX 01 01:15:37
  TRACK 64 AUDIO
    TITLE "3:cjc114_3024"
    INDEX 01 01:15:66
  TRACK 65 AUDIO
    TITLE "0:"
    INDEX 01 01:17:18
  TRACK 66 AUDIO
    TITLE "4:cjc114_3025"
    INDEX 01 01:17:47
  TRACK 67 AUDIO
    TITLE "0:"
    INDEX 01 01:21:49
  TRACK 68 AUDIO
    TITLE "2:cjc114_3026"
    INDEX 01 01:22:29
  TRACK 69 AUDIO
    TITLE "0:"
    INDEX 01 01:23:38
  TRACK 70 AUDIO
    TITLE "3:cjc114_3027"
    INDEX 01 01:23:65
  TRACK 71 AUDIO
    TITLE "0:"
    INDEX 01 01:25:57
  TRACK 72 AUDIO
    TITLE "4:cjc114_3028"
    INDEX 01 01:26:11
  TRACK 73 AUDIO
    TITLE "0:"
    INDEX 01 01:30:58
  TRACK 74 AUDIO
    TITLE "2:cjc114_3029"
    INDEX 01 01:31:34
  TRACK 75 AUDIO
    TITLE "0:"
    INDEX 01 01:34:14
  TRACK 76 AUDIO
    TITLE "3:cjc114_3030"
    INDEX 01 01:34:48
  TRACK 77 AUDIO
    TITLE "0:"
    INDEX 01 01:36:09
  TRACK 78 AUDIO
    TITLE "4:cjc114_3031"
    INDEX 01 01:36:37
  TRACK 79 AUDIO
    TITLE "0:"
    INDEX 01 01:39:57
  TRACK 80 AUDIO
    TITLE "4:cjc114_3032"
    INDEX 01 01:40:33
  TRACK 81 AUDIO
    TITLE "0:"
    INDEX 01 01:44:46
